<?xml version="1.0" encoding="UTF-8"?>
<svg version="1.1" xmlns="http://www.w3.org/2000/svg" width="5287" height="648">
<path d="M0 0 C1.051875 0.61875 2.10375 1.2375 3.1875 1.875 C9.25171011 6.45684764 14.17476459 11.07272676 18.625 17.25 C19.13369629 17.94182373 19.64239258 18.63364746 20.16650391 19.34643555 C21.78756819 21.55727024 23.39527111 23.77728595 25 26 C25.78600586 27.08498779 25.78600586 27.08498779 26.58789062 28.19189453 C28.73091741 31.15077769 30.87085633 34.11183471 33.00463867 37.07739258 C38.68326313 44.96890522 44.45611017 52.78983112 50.23388672 60.60888672 C53.15956103 64.56991162 56.07950306 68.53515717 59 72.5 C60.1666389 74.08335379 61.33330558 75.66668712 62.5 77.25 C69.5 86.75 69.5 86.75 71.24951172 89.12451172 C72.41758398 90.70963628 73.58587868 92.29459694 74.75439453 93.87939453 C77.65139141 97.80901631 80.5446114 101.74130352 83.4296875 105.6796875 C89.5417715 114.01434749 95.72022719 122.29077228 102 130.5 C110.04102314 141.01162075 117.89059941 151.65630433 125.70898438 162.33398438 C132.39063523 171.45363782 139.13091852 180.52039901 146 189.5 C151.09972677 196.16661354 156.15291386 202.8625709 161.125 209.625 C161.69476562 210.39956543 162.26453125 211.17413086 162.8515625 211.97216797 C165.74376295 215.91032614 168.6233715 219.85727794 171.4921875 223.8125 C177.81561385 232.50259398 184.29201204 240.98886216 191.20703125 249.21923828 C194.96910578 253.69848632 198.53642474 258.28594926 202 263 C205.29754868 261.90081711 205.68224796 261.42847662 207.57421875 258.703125 C208.06849365 258.0026001 208.56276855 257.3020752 209.07202148 256.58032227 C209.60512939 255.81131592 210.1382373 255.04230957 210.6875 254.25 C215.63835476 247.24691904 220.71354697 240.36431812 225.9375 233.5625 C231.61185807 226.16086922 237.19275042 218.70049212 242.7019043 211.17529297 C247.14474303 205.12243759 251.68371675 199.14761129 256.25 193.1875 C260.59116103 187.51941805 264.89414337 181.84119518 269 176 C273.10586136 170.15879809 277.40898687 164.48070186 281.75 158.8125 C288.70248204 149.73333802 295.52458271 140.5675548 302.28222656 131.34277344 C305.18070828 127.38969917 308.09099503 123.44533293 311 119.5 C312.16672217 117.91670757 313.33338887 116.33337425 314.5 114.75 C335.5 86.25 335.5 86.25 337.25024414 83.87475586 C338.41620806 82.29231815 339.58206104 80.70979869 340.74780273 79.12719727 C343.67431443 75.15448113 346.60277534 71.18323006 349.53515625 67.21484375 C355.22966181 59.50458401 360.89727475 51.77726011 366.5 44 C367.57019516 42.51944643 368.64050825 41.03897809 369.7109375 39.55859375 C371.39785416 37.2250088 373.07965651 34.88824543 374.75097656 32.54345703 C397.36441715 0.82165356 397.36441715 0.82165356 415.90625 -3.52734375 C428.58310106 -5.46408488 439.81135186 -3.37903117 452 0 C451.38743026 2.89244656 450.49631659 5.14481719 448.99609375 7.6875 C448.5897168 8.37956543 448.18333984 9.07163086 447.76464844 9.78466797 C447.32668945 10.51572754 446.88873047 11.24678711 446.4375 12 C445.7554248 13.1449292 445.7554248 13.1449292 445.05957031 14.31298828 C437.70008524 26.58137902 429.37296171 38.04036032 420.84667969 49.51220703 C417.88661885 53.49991458 414.94394526 57.50038925 412 61.5 C410.83342223 63.08339884 409.66675543 64.66673207 408.5 66.25 C407.9225 67.03375 407.345 67.8175 406.75 68.625 C391 90 375.25 111.375 359.5 132.75 C358.92233887 133.5339917 358.34467773 134.3179834 357.74951172 135.12573242 C356.58456151 136.70668983 355.41952266 138.28758192 354.25439453 139.8684082 C351.3107302 143.86255828 348.36868654 147.8578843 345.4296875 151.85546875 C339.50069967 159.91681185 333.54800424 167.9581478 327.52978516 175.953125 C323.73267456 181.00426982 319.98763377 186.09225038 316.25 191.1875 C310.57838388 198.91350152 304.79257669 206.54643044 298.96630859 214.15625 C294.53636383 219.95295955 290.18225916 225.79919483 285.875 231.6875 C281.36536492 237.84788698 276.76867212 243.92592774 272.0625 249.9375 C248.92318592 275.95358783 248.92318592 275.95358783 241 308 C244.28248622 322.62799229 255.19637914 334.75474624 264.265625 346.23828125 C268.04925158 351.03714794 271.72129954 355.91432237 275.375 360.8125 C280.60831953 367.82076373 285.8791222 374.79840235 291.1875 381.75 C300.14504756 393.48773512 309.0128605 405.28476565 317.75 417.1875 C322.76179923 424.01418015 327.85348211 430.7743665 333 437.5 C339.86678999 446.47628765 346.6036261 455.54034642 353.28222656 464.65722656 C356.1807081 468.61030059 359.09092628 472.55471802 362 476.5 C365.49119756 481.23614334 368.98109813 485.97321537 372.46484375 490.71484375 C378.43743304 498.83971746 384.44087274 506.93940618 390.5 515 C397.14470604 523.83960249 403.71854559 532.72940267 410.26611328 541.64111328 C413.17371621 545.59679612 416.08710842 549.54821092 419 553.5 C422.52572937 558.28347453 426.05038927 563.06771953 429.5703125 567.85546875 C430.15804443 568.65436523 430.74577637 569.45326172 431.35131836 570.27636719 C432.53246557 571.88201204 433.71296849 573.48813104 434.89282227 575.09472656 C437.57106252 578.73470365 440.26303224 582.36022813 443.01953125 585.94140625 C451.66186237 597.19787349 459.43898338 608.99303308 467 621 C467.56001709 621.88598877 468.12003418 622.77197754 468.69702148 623.68481445 C470 626 470 626 470 628 C468.10546779 628.64964023 466.20931351 629.29455115 464.3125 629.9375 C463.25675781 630.29714844 462.20101562 630.65679688 461.11328125 631.02734375 C448.75205196 634.88925855 432.6330511 635.21536647 420.80078125 629.64453125 C409.00992792 622.72131054 401.86499223 612.91345675 394 602 C392.90239796 600.48693984 391.80474194 598.97391884 390.70703125 597.4609375 C388.52424929 594.44508484 386.35045196 591.42294674 384.1796875 588.3984375 C381.19141416 584.24755325 378.14101087 580.1467497 375.0625 576.0625 C370.71579644 570.29562904 366.40542791 564.50376251 362.125 558.6875 C361.53912109 557.89150391 360.95324219 557.09550781 360.34960938 556.27539062 C357.98436233 553.06041628 355.6204158 549.84448865 353.25732422 546.62792969 C346.08979264 536.87296574 338.87976614 527.15270658 331.60351562 517.47851562 C327.38664446 511.86619589 323.21383495 506.22341129 319.0625 500.5625 C313.4523016 492.91685547 307.7247857 485.36661918 301.96118164 477.83618164 C296.99612238 471.33769836 292.12878657 464.77358498 287.29785156 458.17504883 C282.85518898 452.12220487 278.31621363 446.14752041 273.75 440.1875 C269.00430122 433.99122915 264.34541901 427.75935893 259.85742188 421.37451172 C255.45833196 415.15817008 250.80022886 409.14012094 246.16845703 403.09643555 C241.66911117 397.21669249 237.24507913 391.28879822 232.875 385.3125 C223.78641008 372.90579181 214.430588 360.69640186 204.4765625 348.96875 C203 347 203 347 203 345 C190.98867203 354.88398105 182.16410146 366.90706237 172.97607422 379.33447266 C170.43713007 382.75925548 167.87481267 386.16611617 165.3112793 389.57250977 C159.85073193 396.82881239 154.43394135 404.11502434 149.0625 411.4375 C144.0975009 418.205904 139.04292103 424.89947227 133.9375 431.5625 C128.48101084 438.68529147 123.15686007 445.88325729 117.93994141 453.18286133 C113.67522957 459.12520172 109.26302335 464.94589474 104.8125 470.75 C100.02626273 476.99250291 95.3166591 483.2645388 90.78735352 489.69555664 C87.20326546 494.76480905 83.48389531 499.7278883 79.75 504.6875 C73.01970404 513.62733925 66.36341308 522.61876278 59.73828125 531.63671875 C57.98488804 534.02054547 56.22746879 536.40135017 54.46875 538.78125 C48.22770051 547.22938426 42.03047792 555.70610054 35.89428711 564.23071289 C31.38853252 570.48230247 26.82220569 576.68781411 22.23706055 582.88134766 C18.76283673 587.58156929 15.34046795 592.31427534 11.95239258 597.0769043 C-11.23400401 629.56961698 -11.23400401 629.56961698 -32.27734375 633.6328125 C-44.59841691 634.95948017 -56.57904126 632.5479433 -68 628 C-66.37465114 623.28831454 -63.84087125 619.38707137 -61.125 615.25 C-60.63813721 614.50411621 -60.15127441 613.75823242 -59.6496582 612.98974609 C-50.5257671 599.10790826 -40.66929626 585.75018081 -30.78222656 572.40722656 C-27.84759897 568.4434693 -24.92438257 564.47131808 -22 560.5 C-20.83597073 558.92054842 -19.6719082 557.34112137 -18.5078125 555.76171875 C-16.14656803 552.55736102 -13.78741454 549.35147783 -11.4296875 546.14453125 C-5.50190275 538.08482392 0.45167967 530.04675097 6.46582031 522.05126953 C12.10309086 514.5479322 17.65871279 506.98469459 23.21777344 499.42333984 C26.72535438 494.65399074 30.2389817 489.88909438 33.75170898 485.12353516 C36.65865573 481.17929 39.56377129 477.23372455 42.46484375 473.28515625 C49.06044297 464.31276452 55.70287798 455.37804792 62.39648438 446.47851562 C66.61335554 440.86619589 70.78616505 435.22341129 74.9375 429.5625 C80.54613287 421.91898899 86.27125936 414.37022838 92.03442383 406.84277344 C96.46414019 401.04640259 100.81801065 395.20049769 105.125 389.3125 C110.25963699 382.29768618 115.52924675 375.40411516 120.88891602 368.56005859 C125.17215317 363.08506344 129.37235027 357.55454211 133.52075195 351.97680664 C136.10790537 348.5032457 138.72347349 345.0571834 141.390625 341.64453125 C152.54655408 327.34713563 161.92078075 315.10453969 160 296 C157.50797804 286.0192623 151.13155291 278.02773875 145 270 C144.51499023 269.3596582 144.02998047 268.71931641 143.53027344 268.05957031 C140.31048005 263.80894222 137.06442983 259.57894277 133.81103516 255.35400391 C124.83310483 243.68438888 115.92646462 231.96727447 107.21899414 220.09423828 C103.01705595 214.36740797 98.76953087 208.67658533 94.5 203 C87.8550233 194.16060375 81.28145185 185.27059384 74.73388672 176.35888672 C71.82628372 172.40320379 68.91283606 168.45183011 66 164.5 C64.83330558 162.91668712 63.6666389 161.33335379 62.5 159.75 C61.9225 158.96625 61.345 158.1825 60.75 157.375 C54.33333333 148.66666667 47.91666667 139.95833333 41.5 131.25 C40.92241943 130.46616943 40.34483887 129.68233887 39.74975586 128.87475586 C38.58379194 127.29231815 37.41793896 125.70979869 36.25219727 124.12719727 C33.32568557 120.15448113 30.39722466 116.18323006 27.46484375 112.21484375 C21.22528928 103.76659743 15.0293578 95.28993416 8.89208984 86.76708984 C2.66337597 78.12750396 -3.66954014 69.5651506 -10 61 C-14.10352222 55.44790954 -18.20232452 49.89245603 -22.28857422 44.32763672 C-23.41824897 42.7912146 -24.55004364 41.25634865 -25.68408203 39.72314453 C-31.99902883 31.18026522 -38.06594774 22.54073834 -43.75 13.5625 C-44.26385254 12.75103516 -44.77770508 11.93957031 -45.30712891 11.10351562 C-48.86703354 5.39889937 -48.86703354 5.39889937 -50 2 C-47.58394775 1.18563413 -45.16720002 0.37344603 -42.75 -0.4375 C-42.06808594 -0.66759766 -41.38617187 -0.89769531 -40.68359375 -1.13476562 C-28.22722699 -5.30704381 -11.68553719 -7.11933989 0 0 Z " fill="#F1F2F2" transform="translate(2716,4)"/>
<path d="M0 0 C1.34288086 0.23348145 1.34288086 0.23348145 2.71289062 0.47167969 C48.81087715 8.60948492 91.88132552 29.97277692 125.52539062 62.57226562 C126.9592092 63.96050586 128.40909281 65.3320932 129.859375 66.703125 C137.00505774 73.6065812 143.0621636 81.06827758 149 89 C149.41604492 89.54462891 149.83208984 90.08925781 150.26074219 90.65039062 C170.92339573 117.75271335 183.73678821 149.20743527 190.8125 182.375 C191.00755127 183.28822021 191.20260254 184.20144043 191.40356445 185.14233398 C194.62740159 201.19610437 195.40817294 217.04034246 195.375 233.375 C195.37418427 234.89119431 195.37418427 234.89119431 195.37335205 236.4380188 C195.33344957 252.60698326 194.50321395 268.15822124 191 284 C190.67854004 285.47484863 190.67854004 285.47484863 190.35058594 286.97949219 C185.9747607 306.4254812 179.56256995 325.45619098 170.06835938 343.01513672 C168.94404876 345.10394963 167.85507647 347.20922709 166.765625 349.31640625 C158.42226333 365.17329773 147.96125927 379.42657862 135.546875 392.3359375 C133.51555274 394.4607255 131.61090591 396.6038944 129.75 398.875 C127.19223156 401.89714715 124.37431586 404.4587941 121.3515625 407.01171875 C119.65612106 408.44523984 117.98719816 409.91033362 116.3359375 411.39453125 C72.05878089 450.80193736 12.0998589 469.28235971 -46.4375 469.1875 C-47.18733154 469.18656342 -47.93716309 469.18562683 -48.7097168 469.18466187 C-110.66523461 469.01750384 -170.2220003 448.21088284 -216 406 C-216.8559375 405.2471875 -217.711875 404.494375 -218.59375 403.71875 C-223.83879814 399.10563537 -228.57992775 394.40426328 -233 389 C-233.43038574 388.48195801 -233.86077148 387.96391602 -234.30419922 387.43017578 C-270.55025866 343.72133133 -289.20145137 290.09214023 -289.25 233.375 C-289.25067474 232.65756622 -289.25134949 231.94013245 -289.25204468 231.20095825 C-289.16516793 172.44223545 -269.11109894 112.2581471 -227.125 70 C-226.08696049 68.99623538 -225.04577076 67.99570727 -224 67 C-223.21625 66.21625 -222.4325 65.4325 -221.625 64.625 C-220.75875 63.75875 -219.8925 62.8925 -219 62 C-218.43539062 61.38898438 -217.87078125 60.77796875 -217.2890625 60.1484375 C-185.87941008 27.05397614 -138.291265 7.56861171 -94 0 C-93.1136084 -0.16081055 -92.2272168 -0.32162109 -91.31396484 -0.48730469 C-62.09863971 -5.59616811 -29.14177269 -5.48745078 0 0 Z M-194 86 C-194.89976562 86.83660156 -195.79953125 87.67320312 -196.7265625 88.53515625 C-233.71923177 123.87541522 -252.59574297 176.53343556 -254.22265625 226.90234375 C-255.34575717 282.07413038 -237.05658435 335.14428062 -198.66015625 375.24609375 C-197.78230469 376.15488281 -196.90445313 377.06367188 -196 378 C-195.40058594 378.65097656 -194.80117187 379.30195313 -194.18359375 379.97265625 C-180.82154406 394.13843825 -163.09691836 404.97912035 -146 414 C-144.87722656 414.59554688 -143.75445313 415.19109375 -142.59765625 415.8046875 C-92.31336925 440.80283247 -30.46109937 443.74205725 22.5625 426.125 C53.22561478 415.55006814 80.08483635 399.08632561 103 376 C103.49935059 375.49791016 103.99870117 374.99582031 104.51318359 374.47851562 C141.71728101 336.57865984 160.60414634 283.17073083 160.23242188 230.50976562 C159.24592828 180.11967295 141.32347007 131.39466371 107.01953125 94.20703125 C105.26095093 92.28517848 103.59180225 90.32352511 101.9375 88.3125 C98.62921006 84.44984796 94.91618414 81.23404942 91 78 C90.47229004 77.55994629 89.94458008 77.11989258 89.40087891 76.66650391 C17.41764237 16.85057563 -90.68875104 10.88653885 -194 86 Z " fill="#213BC6" transform="translate(2380,76)"/>
<path d="M0 0 C0.76699219 0.56589844 1.53398438 1.13179687 2.32421875 1.71484375 C3.59677229 2.6573834 4.86307544 3.60845833 6.12109375 4.5703125 C7.53617794 5.64707095 8.96906578 6.70049163 10.41015625 7.7421875 C11.22355469 8.34289062 12.03695313 8.94359375 12.875 9.5625 C13.61492187 10.10003906 14.35484375 10.63757813 15.1171875 11.19140625 C17.3475068 13.3338084 18.13275955 15.0476921 19 18 C18.75039545 24.86412509 16.07470283 28.71250713 11.5625 33.6875 C7.99556127 36.9064447 5.55976146 38.7600367 0.75 39.5 C-7.11215855 38.45171219 -12.92579516 33.37239531 -19.125 28.75 C-63.99031748 -4.66332736 -122.24739719 -16.19065913 -177.1875 -8.8125 C-203.05174652 -4.99447915 -228.02202429 2.44761423 -251 15 C-251.61311035 15.33 -252.2262207 15.66 -252.85791016 16 C-298.04216809 40.43553215 -330.31957007 83.15169076 -345 132 C-358.62141362 179.31732597 -357.1556318 229.36122249 -338 275 C-337.70399902 275.71027344 -337.40799805 276.42054688 -337.10302734 277.15234375 C-330.17987135 293.45972362 -320.78019428 308.75267529 -309 322 C-308.29617188 322.81210937 -307.59234375 323.62421875 -306.8671875 324.4609375 C-304.6191192 327.01519431 -302.32395033 329.51461209 -300 332 C-298.69482422 333.40378906 -298.69482422 333.40378906 -297.36328125 334.8359375 C-285.03717459 347.78788717 -270.42938356 358.0685804 -255 367 C-254.33564941 367.38639648 -253.67129883 367.77279297 -252.98681641 368.17089844 C-228.69917073 382.11131763 -201.57055388 389.862452 -174 394 C-173.33371582 394.1045752 -172.66743164 394.20915039 -171.98095703 394.31689453 C-163.84193416 395.41665614 -155.5730968 395.2439683 -147.375 395.25 C-146.5518631 395.25067474 -145.7287262 395.25134949 -144.88064575 395.25204468 C-124.29179953 395.2252939 -104.78148882 392.85561327 -85 387 C-84.26974609 386.78456543 -83.53949219 386.56913086 -82.78710938 386.34716797 C-70.04143447 382.46345223 -57.84889733 377.06827929 -45.625 371.8125 C-44.79928497 371.45884369 -43.97356995 371.10518738 -43.12283325 370.74081421 C-40.7374906 369.71604185 -38.35638024 368.6820606 -35.9765625 367.64453125 C-34.90421104 367.18380722 -34.90421104 367.18380722 -33.81019592 366.71377563 C-27.2110433 363.81004041 -20.75190178 360.41770513 -17 354 C-13.94139081 346.00075592 -13.58660351 338.2504937 -13.67529297 329.77685547 C-13.67646118 328.5022345 -13.67762939 327.22761353 -13.67883301 325.91436768 C-13.68151689 323.16486356 -13.69361698 320.41562887 -13.71337509 317.66619492 C-13.74466779 313.31100099 -13.75471193 308.95590691 -13.76223755 304.60061646 C-13.77667037 297.70905787 -13.80555076 290.81764702 -13.84048474 283.92616475 C-13.90256863 271.58810028 -13.94013023 259.24994815 -13.97207749 246.91177285 C-13.98384345 242.58977329 -14.00197686 238.26786175 -14.02559257 233.94591117 C-14.03614158 231.90268474 -14.04441245 229.85946341 -14.05175781 227.81622314 C-14.06087694 225.3356246 -14.073698 222.8550355 -14.09109497 220.3744812 C-14.14017644 202.02134955 -14.14017644 202.02134955 -9 196 C-2.55820009 192.18313311 4.68570991 192.62438895 11.765625 194.2734375 C14.87450255 195.28436621 16.79784325 196.59139106 19 199 C20.95607805 202.93312366 21.25467353 206.16624864 21.26742554 210.53227234 C21.27195665 211.17469008 21.27648776 211.81710782 21.28115618 212.47899276 C21.29377879 214.623683 21.29218122 216.7681186 21.29052734 218.9128418 C21.2965141 220.45398789 21.30331999 221.99513098 21.31088257 223.53627014 C21.32853869 227.71834637 21.33323789 231.90034073 21.33451414 236.08245063 C21.33593696 238.6982284 21.34020913 241.31398545 21.34550858 243.92975807 C21.3640103 253.06410668 21.37217935 262.19839695 21.37060547 271.33276367 C21.36940528 279.83231638 21.3904831 288.33161466 21.4220928 296.83110303 C21.44829788 304.13916738 21.45897093 311.44714887 21.45769465 318.75525981 C21.45718609 323.11512084 21.46280978 327.47475591 21.48405075 331.83456993 C21.50350366 335.93950853 21.50350985 340.04400734 21.48901749 344.14896202 C21.48693672 345.6492884 21.49158635 347.14964281 21.5037384 348.64992142 C21.58790527 359.7679556 20.41702742 369.43277532 12.4765625 377.8125 C1.28060634 387.70167263 -11.78652744 395.1733702 -25 402 C-25.72848145 402.3825293 -26.45696289 402.76505859 -27.20751953 403.15917969 C-59.28244701 419.84013288 -95.97080391 427.97861953 -132 429 C-132.74266113 429.02191406 -133.48532227 429.04382813 -134.25048828 429.06640625 C-198.18552073 430.64148404 -264.50059191 415.79271448 -313 372 C-313.86496094 371.25492187 -314.72992187 370.50984375 -315.62109375 369.7421875 C-352.71437339 337.45193783 -375.82067962 288.98820477 -386.8125 241.8125 C-386.99538574 241.03165039 -387.17827148 240.25080078 -387.36669922 239.44628906 C-391.02319781 222.6351901 -392.55582552 205.9278549 -392.4375 188.75 C-392.43479095 187.81833008 -392.43208191 186.88666016 -392.42929077 185.92675781 C-392.36352762 170.95003926 -391.39980989 156.63637569 -388 142 C-387.81276367 141.15727539 -387.62552734 140.31455078 -387.43261719 139.44628906 C-379.38285753 103.84104815 -361.938687 71.19367959 -339 43 C-338.51208984 42.39639648 -338.02417969 41.79279297 -337.52148438 41.17089844 C-326.05449426 27.08931044 -313.35121176 14.02476213 -298.70019531 3.25146484 C-297.00363496 2.00267559 -295.32604025 0.73112897 -293.6484375 -0.54296875 C-284.61318867 -7.30341782 -274.99831349 -12.79482803 -265 -18 C-264.33194336 -18.35304199 -263.66388672 -18.70608398 -262.97558594 -19.06982422 C-242.44613662 -29.79669256 -219.77650047 -36.24464037 -197 -40 C-196.05592285 -40.16226074 -195.1118457 -40.32452148 -194.13916016 -40.49169922 C-128.4631629 -51.32036033 -53.879884 -40.60410655 0 0 Z " fill="#E43B60" transform="translate(1967,116)"/>
<path d="M0 0 C0.74765625 0.41507813 1.4953125 0.83015625 2.265625 1.2578125 C7.73208834 4.54228417 9.34802756 9.13093208 11 15 C12.25689257 20.3651357 13.11892823 25.47974777 13 31 C10.8570266 31.51211882 8.71042119 32.00904659 6.5625 32.5 C4.77005859 32.91765625 4.77005859 32.91765625 2.94140625 33.34375 C-7.42840308 35.07033867 -13.17344242 32.95075859 -22.5 28.0625 C-24.90585871 26.84772157 -27.32191771 25.65452584 -29.7421875 24.46875 C-30.35089691 24.17033707 -30.95960632 23.87192413 -31.58676147 23.56446838 C-79.29564674 0.44827076 -135.94059174 -3.95030252 -186.25097656 12.74707031 C-212.94814399 22.15848327 -237.3751916 40.21315731 -250 66 C-257.49641082 83.85946943 -258.92098086 103.71468665 -252 122 C-248.04190593 131.56710303 -242.94573969 139.35216388 -236 147 C-235.47148437 147.62132812 -234.94296875 148.24265625 -234.3984375 148.8828125 C-230.71698091 152.94185439 -226.37944216 155.99108142 -221.875 159.0625 C-221.00657471 159.66203491 -221.00657471 159.66203491 -220.12060547 160.27368164 C-201.83508633 172.34684438 -178.95180451 178.2475431 -158.19140625 184.7109375 C-157.51533073 184.92204288 -156.83925522 185.13314827 -156.14269257 185.35065079 C-141.92932617 189.78205115 -127.63375734 193.91157816 -113.31804562 197.99765396 C-70.04949177 210.34989879 -70.04949177 210.34989879 -50.75 216.75 C-49.74640442 217.07747223 -49.74640442 217.07747223 -48.72253418 217.41156006 C-35.58480488 221.7229604 -22.41107249 227.29736673 -10.75 234.8125 C-10.10361572 235.22282471 -9.45723145 235.63314941 -8.79125977 236.0559082 C-2.02425915 240.46072512 4.03549626 245.57618782 10 251 C10.66257812 251.58007812 11.32515625 252.16015625 12.0078125 252.7578125 C28.73806754 268.2430253 39.15707838 292.21149137 40.12255859 314.87719727 C41.0017649 350.8740349 33.95104525 380.58293542 9.53125 407.74609375 C-24.52162527 443.18098507 -75.77872678 453.78104345 -123.08984375 455.12890625 C-182.07341401 456.25549659 -251.54514573 441.90636972 -295.625 399.75 C-300.902719 394.14938258 -302.70034488 389.45613493 -302.48046875 381.75 C-301.66883262 377.10453794 -299.2530119 374.2826521 -296 371 C-295.48566406 370.45988281 -294.97132813 369.91976563 -294.44140625 369.36328125 C-292.9375 367.9375 -292.9375 367.9375 -290 366 C-285.6119632 366.26110632 -283.22745516 368.10023671 -279.875 370.8125 C-251.86493519 392.65758479 -218.57282476 407.34903024 -183.9375 414.75 C-183.01743164 414.94875732 -182.09736328 415.14751465 -181.14941406 415.35229492 C-165.98962028 418.42561773 -150.81110574 419.38419717 -135.375 419.3125 C-134.55194366 419.31067719 -133.72888733 419.30885437 -132.88088989 419.30697632 C-93.51432581 419.16103161 -52.71147453 411.13555283 -22 385 C-21.32710937 384.44054687 -20.65421875 383.88109375 -19.9609375 383.3046875 C-6.9558728 371.48729994 1.41213746 352.30617662 2.3203125 335.03125 C2.97827341 314.28177964 -2.81147606 295.21895836 -16.671875 279.44921875 C-49.51631917 244.89642261 -108.26001141 236.30374556 -152.56640625 223.69921875 C-170.40854352 218.61824236 -188.20017936 213.4609031 -205.8125 207.625 C-206.88794067 207.27210403 -206.88794067 207.27210403 -207.98510742 206.91207886 C-226.94404014 200.66474996 -244.62471743 193.01398263 -260 180 C-260.62519531 179.50886719 -261.25039062 179.01773438 -261.89453125 178.51171875 C-280.28105328 163.77759839 -290.44516399 138.12625299 -292.9855957 115.30664062 C-296.07584246 84.69522124 -291.45269871 52.31720311 -272.03515625 27.41796875 C-268.46216436 23.17289777 -264.80304919 19.04030363 -261 15 C-260.47277344 14.40832031 -259.94554688 13.81664062 -259.40234375 13.20703125 C-201.81555157 -48.79818488 -75.89460162 -42.24191298 0 0 Z " fill="#F1F2F2" transform="translate(3595,106)"/>
<path d="M0 0 C8.69019921 7.13273493 12.72236081 20.05028671 17.25 30.0625 C18.0028041 31.71524915 18.75615015 33.36775156 19.51000977 35.02001953 C21.4227846 39.21609836 23.32870292 43.41524643 25.23193359 47.61566162 C26.86070186 51.2096422 28.4928564 54.80208259 30.125 58.39453125 C30.73178478 59.73021827 31.3385557 61.06591159 31.9453125 62.40161133 C32.39173096 63.38431503 32.39173096 63.38431503 32.84716797 64.38687134 C33.75802816 66.39267883 34.66809669 68.39884427 35.578125 70.4050293 C40.80217722 81.91446313 46.09643711 93.39101851 51.40060425 104.8637085 C56.73235745 116.39657324 62.03810272 127.94079459 67.3125 139.5 C73.30458651 152.63035545 79.33710488 165.74161055 85.390625 178.84375 C91.23115008 191.48488647 97.05397812 204.1339999 102.86346436 216.78942871 C108.72925747 229.56642403 114.61926253 242.3321154 120.5161438 255.0947876 C126.11730512 267.21965092 131.68208928 279.36062971 137.22488403 291.51226807 C143.10841728 304.40675333 149.06216472 317.26805085 155.03048706 330.12347412 C160.82264686 342.6013789 166.57223904 355.09768148 172.27670288 367.61590576 C177.42873303 378.91974727 182.64594444 390.19224779 187.88427734 401.45632935 C193.61650512 413.78577941 199.33333219 426.11803134 204.8125 438.5625 C205.45215698 440.01390381 205.45215698 440.01390381 206.10473633 441.49462891 C212.3125 455.72392078 212.3125 455.72392078 212.3125 461 C209.50248805 461.67901044 206.69024339 462.34333172 203.875 463 C203.09189453 463.19078125 202.30878906 463.3815625 201.50195312 463.578125 C193.72802415 465.36964773 186.3311941 466.44505371 179.14013672 462.37719727 C172.89520743 457.67139362 169.56568241 449.9780096 166.375 443.0625 C165.91246826 442.07797852 165.44993652 441.09345703 164.97338867 440.07910156 C159.30515866 427.95639419 153.80333523 415.75538948 148.28712463 403.56297302 C144.98346485 396.26503715 141.65208594 388.97986814 138.31771851 381.69592285 C132.48670087 368.95793127 126.6745745 356.21152561 120.88424683 343.45498657 C117.39578573 335.76983405 113.89884408 328.08876289 110.37890625 320.41796875 C109.04402206 317.50792653 107.70936631 314.59777972 106.375 311.6875 C106.04355988 310.96468842 105.71211975 310.24187683 105.37063599 309.49716187 C99.89797199 297.55340542 94.55421588 285.55572594 89.24539185 273.53842163 C84.27534082 262.29883234 79.14203027 251.14809674 73.88497925 240.04019165 C68.51005197 228.67411577 63.37495706 217.21268657 58.30224609 205.70898438 C53.60839386 195.072311 48.78647906 184.50848025 43.8125 174 C38.48119758 162.73660594 33.34074187 151.4018556 28.3125 140 C22.67506085 127.21974766 16.87350708 114.5319973 10.90209961 101.90454102 C7.6522813 95.02593704 4.44727034 88.13076348 1.3203125 81.1953125 C0.98868607 80.46058212 0.65705963 79.72585175 0.31538391 78.96885681 C-1.26844266 75.45679867 -2.8460305 71.94212392 -4.41430664 68.4230957 C-8.46053336 59.39847357 -12.93246207 50.6713153 -17.6875 42 C-28.21803414 64.14386457 -38.56979743 86.35678597 -48.65301514 108.70776367 C-51.73294559 115.5323473 -54.81949493 122.35394432 -57.9046936 129.17614746 C-59.12459044 131.87409422 -60.3439183 134.57229766 -61.56323242 137.27050781 C-66.95695421 149.2016323 -72.39574434 161.11144381 -77.85559082 173.01242065 C-83.2956646 184.87788942 -88.61090267 196.79596266 -93.89047241 208.73358154 C-98.72995811 219.67055861 -103.69295278 230.53840646 -108.765625 241.36962891 C-113.08846252 250.63228596 -117.24533747 259.96251017 -121.375 269.3125 C-127.0233059 282.09997953 -132.80218412 294.81990102 -138.6875 307.5 C-144.46656198 319.95201265 -150.14446193 332.44112261 -155.6875 345 C-161.59425279 358.38294688 -167.66176968 371.68386854 -173.82595825 384.95013428 C-179.04552321 396.18681272 -184.13025145 407.47340866 -189.1109314 418.81787109 C-193.80359459 429.49424828 -198.52900919 440.12972075 -203.875 450.5 C-204.29644287 451.33031738 -204.71788574 452.16063477 -205.15209961 453.01611328 C-208.04064185 458.45330032 -210.79820436 461.73666425 -216.58203125 464.265625 C-225.55121934 466.38664055 -235.79759214 463.86869492 -244.6875 462 C-246.19522411 457.31758866 -244.95043473 453.99749653 -243.18359375 449.62109375 C-242.90930038 448.91826767 -242.63500702 448.21544159 -242.35240173 447.49131775 C-239.72671556 440.87309462 -236.76516651 434.42453237 -233.68392944 428.00827026 C-232.02222335 424.54623325 -230.3837368 421.07319009 -228.7421875 417.6015625 C-228.40376328 416.88711472 -228.06533905 416.17266693 -227.71665955 415.43656921 C-224.18799561 407.97364961 -220.77563547 400.45940452 -217.375 392.9375 C-211.88594583 380.80874831 -206.33769985 368.708622 -200.75 356.625 C-195.03416297 344.26280557 -189.34118549 331.89074569 -183.6875 319.5 C-177.67500925 306.32375029 -171.61819679 293.16846416 -165.54199219 280.02148438 C-160.23003518 268.526609 -154.94441829 257.02014596 -149.6875 245.5 C-143.67488718 232.32380561 -137.61819711 219.16846485 -131.54199219 206.02148438 C-125.90042459 193.81334407 -120.29171063 181.59069272 -114.70901489 169.35552979 C-109.38080659 157.6799509 -104.01074445 146.02413827 -98.625 134.375 C-92.7764125 121.72373952 -86.96788088 109.05543515 -81.21209717 96.36169434 C-75.55590914 83.88868709 -69.85349616 71.43732824 -64.11767578 59.00073242 C-60.83823905 51.88586871 -57.57282997 44.76584606 -54.3674469 37.61724854 C-52.92761428 34.40638331 -51.48111528 31.19853756 -50.03463745 27.99066162 C-49.35452693 26.47669706 -48.6779255 24.96115033 -48.00515747 23.44390869 C-38.82901342 2.75358698 -38.82901342 2.75358698 -29.6875 -2 C-20.37407558 -5.44062813 -8.58727631 -5.34109714 0 0 Z " fill="#F1F2F2" transform="translate(943.6875,78)"/>
<path d="M0 0 C7.16848412 8.56721273 5.95991849 20.05251 5.86425781 30.6015625 C5.85936831 32.38512869 5.85584665 34.16869907 5.85356903 35.95227051 C5.84362356 40.83362813 5.81512532 45.7147259 5.78362179 50.59598541 C5.75300456 55.85545803 5.73974569 61.11497499 5.72491455 66.37451172 C5.70104278 74.30135967 5.67142871 82.22815287 5.63540244 90.15495491 C5.56442535 105.84289102 5.53637215 121.53067093 5.52148438 137.21875 C5.49868742 159.83461793 5.44969758 182.45028773 5.37854767 205.0660553 C5.33825815 218.01523246 5.30601143 230.96434016 5.29150391 243.91357422 C5.27851654 255.49545653 5.25173264 267.07720745 5.20788693 278.65901566 C5.18541528 284.71145657 5.16958171 290.76373676 5.17061615 296.81622314 C5.17135823 302.42519932 5.1535919 308.03380627 5.12133217 313.64268684 C5.11281714 315.69098287 5.11109408 317.73932021 5.11669731 319.78762627 C5.1233257 322.58093749 5.10545262 325.37306759 5.08148193 328.16625977 C5.09312256 329.37501361 5.09312256 329.37501361 5.10499835 330.60818672 C5.00858891 336.95021931 3.12871243 340.89924516 -0.90136719 345.86694336 C-1.56120605 346.50321655 -1.56120605 346.50321655 -2.234375 347.15234375 C-2.71777344 347.62607422 -3.20117188 348.09980469 -3.69921875 348.58789062 C-4.19035156 349.05388672 -4.68148437 349.51988281 -5.1875 350 C-5.69410156 350.49306641 -6.20070312 350.98613281 -6.72265625 351.49414062 C-7.95406953 352.69070259 -9.19480717 353.87765667 -10.4375 355.0625 C-14.43738981 353.41435263 -17.36586722 350.64570795 -20.5 347.75 C-21.02916016 347.27626953 -21.55832031 346.80253906 -22.10351562 346.31445312 C-28.73407752 340.23297163 -30.49054989 334.83040917 -31.4375 326.0625 C-31.65287972 320.99558908 -31.62831419 315.94522421 -31.5625 310.875 C-31.5524393 309.52800153 -31.54331897 308.18099569 -31.53515625 306.83398438 C-31.51180604 303.57662979 -31.4790577 300.31966451 -31.4375 297.0625 C-32.7575 296.4025 -34.0775 295.7425 -35.4375 295.0625 C-36.15035156 295.908125 -36.86320312 296.75375 -37.59765625 297.625 C-49.34409115 311.54563507 -49.34409115 311.54563507 -53.4375 316.0625 C-53.94023437 316.619375 -54.44296875 317.17625 -54.9609375 317.75 C-80.62917434 344.79555686 -119.23441459 357.05717914 -155.69677734 358.12890625 C-195.40415375 359.0703971 -235.49553198 351.55878296 -266.4375 325.0625 C-267.65953125 324.06476563 -267.65953125 324.06476563 -268.90625 323.046875 C-296.03012751 300.1959371 -308.19180156 264.32949054 -311.4375 230.0625 C-312.94769814 208.21138475 -312.61728471 186.22246756 -312.63768864 164.33282804 C-312.64065395 161.30639313 -312.64476378 158.2799617 -312.64919281 155.25352859 C-312.66277554 145.7506088 -312.67249573 136.2476973 -312.6763947 126.7447685 C-312.6809011 115.83001743 -312.69860604 104.91538998 -312.7273953 94.00067651 C-312.74900656 85.51007376 -312.75909812 77.01950591 -312.76043582 68.52887595 C-312.76148105 63.47749809 -312.76733308 58.42623796 -312.78525543 53.37488937 C-312.80173412 48.64186375 -312.80389269 43.9090447 -312.79511642 39.1760006 C-312.79434688 37.44422158 -312.79867783 35.71243137 -312.80857468 33.98068047 C-312.82132132 31.61117372 -312.81540406 29.24239672 -312.80499268 26.87289429 C-312.81304908 26.1941067 -312.82110548 25.51531911 -312.82940602 24.8159622 C-312.76382631 18.40390227 -311.05182055 12.06440296 -306.44140625 7.40234375 C-305.60319336 6.55446289 -305.60319336 6.55446289 -304.74804688 5.68945312 C-304.17119141 5.13193359 -303.59433594 4.57441406 -303 4 C-302.42701172 3.40767578 -301.85402344 2.81535156 -301.26367188 2.20507812 C-299.56640625 0.52734375 -299.56640625 0.52734375 -296.4375 -1.9375 C-291.98054987 -1.49572223 -289.12549441 1.54864209 -285.875 4.375 C-285.29814453 4.86162109 -284.72128906 5.34824219 -284.12695312 5.84960938 C-276.7516196 12.17010858 -276.7516196 12.17010858 -275.93188381 17.10854912 C-275.87544232 18.29370173 -275.81900084 19.47885433 -275.760849 20.69992065 C-275.71128883 21.68485624 -275.71128883 21.68485624 -275.66072744 22.68968952 C-275.29329925 30.74294508 -275.27683379 38.80380148 -275.26391602 46.86376953 C-275.25759193 48.59543518 -275.25082417 50.32709925 -275.24365234 52.0587616 C-275.22910812 55.75805449 -275.2173334 59.45734164 -275.20770454 63.15665054 C-275.19208283 69.02771067 -275.16813461 74.89871964 -275.14280701 80.76974487 C-275.07205225 97.4548619 -275.01198875 114.14000742 -274.96069336 130.82519531 C-274.93221912 140.06343159 -274.89675248 149.30161602 -274.85403961 158.53979766 C-274.83186199 163.41005925 -274.81325882 168.28027377 -274.80359077 173.15057755 C-275.0440992 207.23090011 -275.0440992 207.23090011 -270.1875 240.875 C-269.97061523 241.83092041 -269.75373047 242.78684082 -269.53027344 243.77172852 C-263.5448134 269.12479198 -250.91842043 292.81862824 -228.4375 307.0625 C-197.42359284 325.71797049 -157.47994364 327.07099628 -122.98828125 318.80859375 C-93.9181428 311.30747156 -67.92132829 294.83345095 -52.3828125 268.5703125 C-28.04527208 225.30627005 -32.3319484 170.71956125 -32.26883507 122.60005951 C-32.26272201 118.34313755 -32.24602138 114.08629055 -32.22749329 109.82940674 C-32.22116423 108.35076524 -32.21483852 106.87212373 -32.20851612 105.39348221 C-32.20535031 104.65549345 -32.2021845 103.9175047 -32.19892275 103.15715265 C-32.15733817 93.30692735 -32.12374744 83.45675338 -32.11157227 73.60644531 C-32.10316492 66.87168177 -32.08062087 60.13712252 -32.0422166 53.40246129 C-32.02263379 49.86790351 -32.00999342 46.33364957 -32.01505089 42.79903412 C-32.02060149 38.87721452 -31.99519252 34.95591216 -31.9675293 31.03417969 C-31.97413071 29.89329895 -31.98073212 28.75241821 -31.98753357 27.57696533 C-31.87577856 17.88804044 -30.15689252 7.54362734 -23.125 0.3359375 C-16.54030918 -4.6330653 -6.86467424 -3.86918002 0 0 Z " fill="#F1F2F2" transform="translate(4586.4375,201.9375)"/>
<path d="M0 0 C7.92866904 7.40474817 12.6380856 17.10657064 13.60546875 27.9609375 C13.36283436 33.22700237 11.41828691 36.27254313 7.84765625 40.0625 C4.70859042 42.86018202 1.77410694 42.71781733 -2.265625 42.640625 C-11.02887429 41.65403402 -17.99141561 32.85294486 -23.99609375 27.10546875 C-42.40057794 9.84937602 -66.68509166 -0.56532508 -91.625 -3.625 C-92.47707031 -3.73585937 -93.32914063 -3.84671875 -94.20703125 -3.9609375 C-132.66238893 -8.227349 -174.95428593 0.81470215 -205.69140625 24.87890625 C-238.24668196 52.5790676 -252.58948181 94.337601 -256.16015625 136.08203125 C-258.67054283 172.28611649 -248.80545947 207.99629595 -225.26806641 235.98876953 C-222.1613536 239.55712683 -218.91019705 242.97111809 -215.625 246.375 C-214.83609375 247.22707031 -214.0471875 248.07914062 -213.234375 248.95703125 C-189.06922955 274.36244079 -154.33993177 288.20877973 -119.625 289.375 C-89.92453651 289.85413633 -58.43405285 282.6870518 -35.50830078 263.2487793 C-16.37704507 247.05041468 -16.37704507 247.05041468 -5.32421875 247.1796875 C-4.34775391 247.18613281 -3.37128906 247.19257813 -2.36523438 247.19921875 C-1.35783203 247.21597656 -0.35042969 247.23273438 0.6875 247.25 C1.71423828 247.25902344 2.74097656 247.26804687 3.79882812 247.27734375 C6.32445899 247.30083799 8.8496081 247.33368869 11.375 247.375 C11.49181812 250.91638618 11.562455 254.4572724 11.625 258 C11.65851563 258.99902344 11.69203125 259.99804688 11.7265625 261.02734375 C11.80653788 267.06548488 11.51412551 270.65736111 7.375 275.375 C6.72845459 276.11363281 6.72845459 276.11363281 6.06884766 276.8671875 C-18.69595107 304.28196643 -56.00087062 320.53861685 -92.77467346 322.48901367 C-95.0766607 322.55488002 -97.37686254 322.59132708 -99.6796875 322.61328125 C-100.53046371 322.6230751 -101.38123993 322.63286896 -102.25779724 322.64295959 C-147.81481819 323.05903737 -193.37126968 315.07744482 -229.625 285.375 C-230.17027344 284.92979004 -230.71554687 284.48458008 -231.27734375 284.02587891 C-246.94971158 271.17435959 -259.23159344 256.76368861 -269.625 239.375 C-270.29144531 238.27414062 -270.95789062 237.17328125 -271.64453125 236.0390625 C-296.01616978 194.08297555 -300.8440791 137.85067755 -288.625 91.375 C-282.84130995 70.61101552 -274.66016371 49.71303328 -261.625 32.375 C-260.86832031 31.33730469 -260.11164063 30.29960937 -259.33203125 29.23046875 C-250.44296858 17.21251331 -240.60119046 6.38550324 -228.625 -2.625 C-227.57957031 -3.42421875 -226.53414062 -4.2234375 -225.45703125 -5.046875 C-160.40872729 -53.78319743 -62.76154124 -51.44779092 0 0 Z " fill="#F1F2F2" transform="translate(4988.625,236.625)"/>
<path d="M0 0 C0.74701172 -0.020625 1.49402344 -0.04125 2.26367188 -0.0625 C7.95015085 -0.10244015 12.00714663 1.03177653 16.5 4.75 C19.2117913 8.17542059 18.81432417 11.84593857 18.81778526 16.01553631 C18.81972869 16.71052265 18.82167212 17.405509 18.82367444 18.12155554 C18.82902025 20.46774823 18.82722843 22.81388254 18.82553101 25.16007996 C18.82794793 26.8522612 18.83080985 28.54444186 18.83408034 30.23662168 C18.84185136 34.90044855 18.84345371 39.56426072 18.84413147 44.22809327 C18.84596802 49.25278493 18.85357312 54.27746794 18.86061096 59.30215454 C18.87214765 68.01416605 18.88038622 76.72617562 18.88673019 85.43819237 C18.89704572 99.20606644 18.91760667 112.97391628 18.93984985 126.74177551 C18.94732995 131.44991962 18.95474363 136.15806383 18.96213722 140.86620808 C18.96491307 142.63125017 18.96491307 142.63125017 18.967745 144.43194967 C18.98868116 157.83296734 19.00750494 171.2339877 19.02539062 184.63500977 C19.02702881 185.86035745 19.02866699 187.08570513 19.03035481 188.34818456 C19.05663871 208.20452136 19.07528218 228.06086002 19.09198253 247.91720685 C19.10939745 268.29374597 19.13823686 288.67024854 19.1768719 309.04675847 C19.20028433 321.62016983 19.21426759 334.1935216 19.21619953 346.76695494 C19.2183074 355.38343617 19.23122405 363.99985813 19.25267886 372.61631276 C19.26471773 377.58938868 19.27185262 382.5623469 19.26596642 387.53543663 C19.26067381 392.08848613 19.26913802 396.64129547 19.28852279 401.19430486 C19.29310019 402.84104295 19.29262531 404.4878045 19.28657441 406.13453784 C19.15738936 419.03181555 19.15738936 419.03181555 24.3125 430.625 C30.50864067 434.86446467 38.67680457 434.53286139 45.91667175 434.47032166 C47.4041859 434.46970988 47.4041859 434.46970988 48.92175084 434.46908575 C52.22421481 434.46537356 55.52644243 434.44737383 58.82885742 434.42944336 C61.20465405 434.42396461 63.58045297 434.41941599 65.95625305 434.41572571 C71.06189965 434.40603204 76.16747759 434.39022102 81.27309227 434.36976433 C88.66135257 434.34060632 96.04958112 434.32458221 103.43788735 434.31295223 C115.43541641 434.29396779 127.43291907 434.26823047 139.43041992 434.23608398 C140.14748532 434.23416605 140.86455072 434.23224812 141.60334537 434.23027206 C149.60826987 434.20871296 157.61318838 434.18553076 165.61810303 434.1605835 C168.52396641 434.15155083 171.42982984 434.14253449 174.33569336 434.13354492 C175.41133736 434.13021244 175.41133736 434.13021244 176.50871154 434.12681263 C188.46680381 434.09008838 200.4248891 434.06501748 212.3830269 434.04907519 C219.09234119 434.03967372 225.80153813 434.02416443 232.51079369 433.99394035 C238.81533034 433.96582816 245.11974837 433.95130047 251.42434502 433.94726372 C253.73909252 433.94323985 256.05383762 433.93403536 258.36854172 433.91930008 C261.52561027 433.89992421 264.68216563 433.89900933 267.83927917 433.9026947 C268.75727254 433.89259194 269.6752659 433.88248917 270.62107724 433.87208027 C275.7127378 433.90049305 279.31231382 434.34351952 283.6875 437.25 C287.45314111 443.14950441 287.38230232 449.40667301 286.6875 456.25 C285.07098199 461.01447412 282.8775242 463.49071577 278.6875 466.25 C275.69129839 467.21408353 272.96022904 467.37682169 269.82358742 467.38142776 C268.84048926 467.38526891 267.8573911 467.38911005 266.84450209 467.3930676 C265.22808351 467.39176787 265.22808351 467.39176787 263.57901001 467.39044189 C262.43234749 467.39341302 261.28568497 467.39638414 260.10427511 467.3994453 C256.92104529 467.40662408 253.73784836 467.40930449 250.55461168 467.41004276 C247.12167284 467.41189443 243.68874568 467.41944226 240.2558136 467.42617798 C232.74969026 467.43975631 225.24357226 467.44578501 217.73743868 467.45018864 C213.05111738 467.45295145 208.36479815 467.45718884 203.67847824 467.46169281 C190.70441886 467.47388397 177.73036114 467.48418414 164.75629616 467.4875679 C163.5109228 467.48789725 163.5109228 467.48789725 162.24039038 467.48823325 C160.99203754 467.48856067 160.99203754 467.48856067 159.71846545 467.4888947 C158.03203686 467.48933817 156.34560827 467.48978473 154.65917969 467.49023438 C153.40438936 467.49056652 153.40438936 467.49056652 152.12424974 467.49090537 C138.56499338 467.49485467 125.00579071 467.51231336 111.44655509 467.5355939 C97.52690459 467.55930049 83.60728105 467.57176941 69.68761003 467.57293582 C61.87160147 467.57385288 54.05566291 467.57961311 46.23967361 467.59775543 C39.58533805 467.61314696 32.93109412 467.61828245 26.27674414 467.61001733 C22.88155721 467.60610766 19.48655489 467.60705569 16.09139061 467.62107468 C12.41075269 467.63372109 8.73059141 467.62795675 5.04995728 467.61749268 C3.97680633 467.62554908 2.90365539 467.63360548 1.79798472 467.64190602 C-3.65154916 467.60556981 -7.63846142 467.38592332 -12.3125 464.25 C-16.89224596 459.29892329 -17.4602713 455.45262609 -17.44392776 448.9322691 C-17.4459804 448.17759048 -17.44803303 447.42291186 -17.45014787 446.6453642 C-17.45583857 444.09613547 -17.45435808 441.54696043 -17.45294189 438.99772644 C-17.45552434 437.15975183 -17.45853716 435.32177779 -17.4619453 433.48380452 C-17.47003264 428.41706153 -17.47180583 423.35033268 -17.47254276 418.283584 C-17.4743903 412.82538939 -17.48193608 407.36720219 -17.48867798 401.90901184 C-17.50227385 389.96701972 -17.50828789 378.02503095 -17.51268864 366.08303237 C-17.51544878 358.63062897 -17.5196857 351.17822688 -17.52419281 343.72582436 C-17.53638681 323.10419769 -17.54668606 302.48257208 -17.5500679 281.86094189 C-17.55028954 280.52716423 -17.55051132 279.19338657 -17.55073325 277.85960891 C-17.55095389 276.52258896 -17.55117438 275.18556901 -17.5513947 273.84854907 C-17.55183726 271.16620394 -17.55228437 268.4838588 -17.55273438 265.80151367 C-17.55284377 265.13644704 -17.55295316 264.47138042 -17.55306586 263.78616025 C-17.55669733 242.21632559 -17.57262065 220.64652451 -17.59592474 199.07670271 C-17.62051131 176.27820696 -17.63423345 153.47972768 -17.63543582 130.68121797 C-17.63635369 118.25081534 -17.6421343 105.82045669 -17.66025543 93.39006615 C-17.67562893 82.80694185 -17.68079316 72.22387512 -17.67251733 61.64074179 C-17.66860114 56.23854841 -17.66958757 50.83647106 -17.68357468 45.43429184 C-17.69625551 40.49154986 -17.69516751 35.54901181 -17.68298396 30.60627035 C-17.68101684 28.81554986 -17.6841519 27.02481522 -17.69282833 25.23411467 C-17.70385885 22.80424512 -17.69647699 20.37510317 -17.6844368 17.94525433 C-17.69203199 17.24633588 -17.69962718 16.54741744 -17.70745254 15.82731965 C-17.6499706 10.4716804 -16.22608031 6.56224287 -12.8125 2.4375 C-9.08784961 -0.51118155 -4.50381071 0.03061214 0 0 Z " fill="#067ECE" transform="translate(1258.3125,74.75)"/>
<path d="M0 0 C6.81683903 4.86966203 12.90348088 11.39693584 14.87841797 19.6875 C15.25590123 23.63377915 15.41007255 27.53986067 15.4375 31.5 C15.50561544 34.15682483 15.59574965 36.81244922 15.68359375 39.46875 C15.72145996 40.73775146 15.75932617 42.00675293 15.79833984 43.31420898 C16.45635511 55.95653499 16.45635511 55.95653499 22 67 C28.9853171 71.80090522 35.92187952 73.09938286 44.28979492 73.17358398 C45.5151445 73.18707382 46.74049408 73.20056366 48.00297546 73.21446228 C49.31554825 73.22490067 50.62812103 73.23533905 51.98046875 73.24609375 C53.35802467 73.26162432 54.73557307 73.27783588 56.1131134 73.29469299 C61.93640403 73.36499342 67.75976549 73.42527136 73.58325195 73.47680664 C77.15646039 73.50889445 80.72946999 73.55024147 84.30251503 73.59700203 C86.30237125 73.62047064 88.30233968 73.63367101 90.30229187 73.64659119 C111.08417943 73.92525467 111.08417943 73.92525467 117.4375 80.375 C118.21996094 81.14585937 119.00242188 81.91671875 119.80859375 82.7109375 C120.53175781 83.46632813 121.25492188 84.22171875 122 85 C123.33219422 86.33447147 124.6651472 87.66818787 126 89 C124.65289963 92.91004518 122.946333 95.55494109 120.1875 98.625 C119.52105469 99.38039063 118.85460938 100.13578125 118.16796875 100.9140625 C110.94511568 107.86361842 101.89375217 107.15599444 92.4375 107.5625 C91.54998047 107.60568359 90.66246094 107.64886719 89.74804688 107.69335938 C75.84738322 108.31489366 61.99148192 107.95287593 48.09960938 107.27636719 C33.11815177 106.4772496 33.11815177 106.4772496 20 113 C10.61061554 123.06005478 13.87472178 143.64629067 13.9465332 156.51123047 C13.95341855 158.43804784 13.95986557 160.36486682 13.96591187 162.29168701 C13.98369773 167.48601196 14.00827453 172.68028283 14.03467202 177.87457037 C14.05629999 182.22805166 14.0748893 186.58154406 14.09360379 190.93503869 C14.13797568 201.21404497 14.18823518 211.49301128 14.24194336 221.77197266 C14.29702807 232.33854908 14.34104629 242.90513185 14.37979442 253.4717797 C14.41365192 262.57970529 14.45499971 271.68757707 14.50211972 280.79544365 C14.53007335 286.21943647 14.5551631 291.64340293 14.5727787 297.06744003 C14.58963366 302.17132984 14.61590554 307.27508969 14.64908981 312.37889862 C14.65965762 314.2395152 14.66702691 316.1001535 14.67075539 317.96079636 C14.70170709 331.95855669 14.98757419 346.20434974 19.1875 359.6875 C19.40180664 360.3875415 19.61611328 361.08758301 19.83691406 361.80883789 C24.66201382 376.79428737 32.91929313 389.06590426 46.97265625 396.59765625 C67.92990754 406.30559588 91.11017644 401.1643649 112 394 C115.74392136 392.52246582 119.37648031 390.86863744 122.9921875 389.1015625 C126.58115454 387.78716158 129.20321094 387.61900733 133 388 C135.36328125 389.20703125 135.36328125 389.20703125 137.3125 390.8125 C137.96863281 391.33457031 138.62476562 391.85664062 139.30078125 392.39453125 C141.58171997 394.54962508 142.89027156 396.28503257 143.37109375 399.41796875 C143.53517893 406.261286 142.76289658 410.91056914 138 416 C118.28166613 433.20563042 88.94569749 436.55740268 64 435 C37.97167996 432.17191856 12.44759219 422.00401596 -5 402 C-24.59026024 375.48627429 -23.1261584 343.58981822 -23.30332303 312.1986599 C-23.32572089 308.38115861 -23.35290608 304.56369062 -23.37937927 300.74621582 C-23.42351665 294.28069716 -23.4642212 287.81516415 -23.50268555 281.34960938 C-23.54587689 274.09365962 -23.59358425 266.83775239 -23.64421999 259.58185101 C-23.69383479 252.46275506 -23.74041704 245.34364205 -23.78577805 238.22451782 C-23.80599986 235.0553832 -23.82712908 231.88625652 -23.84895706 228.71713257 C-23.96684671 211.42486557 -24.01911033 194.13613824 -23.90288222 176.84371471 C-23.88637591 174.27652587 -23.87244676 171.70933736 -23.85955334 169.14212799 C-23.85533818 168.30757505 -23.85112301 167.47302211 -23.84678012 166.61317968 C-23.83843641 164.94698186 -23.83021091 163.28078345 -23.82210654 161.61458445 C-23.79687228 156.79517234 -23.75312745 151.97637836 -23.69529295 147.15725327 C-23.66366316 144.18688543 -23.64859476 141.21659368 -23.63778234 138.24608421 C-23.62520067 136.2294971 -23.59196507 134.21307144 -23.55797386 132.19673157 C-23.54813468 125.12729557 -23.91080548 118.98859136 -28 113 C-35.3199607 107.29043066 -44.93677913 106.33833871 -54 107 C-55.61648438 107.24556641 -55.61648438 107.24556641 -57.265625 107.49609375 C-61.21214711 108.02862654 -65.08781377 108.21974549 -69.0625 108.25 C-69.74376953 108.270625 -70.42503906 108.29125 -71.12695312 108.3125 C-75.84322113 108.34874413 -79.00709712 107.49705419 -83 105 C-87.69187018 98.69024355 -87.69181115 91.60992267 -87 84 C-85.77594986 79.60041406 -84.06459788 76.8516783 -80.5 74 C-74.30220032 72.22920009 -67.98345539 72.55543389 -61.64453125 73.5 C-52.25982824 74.78750481 -40.51331634 75.79596328 -32 71 C-27.81517643 67.72492068 -25.52320936 64.0532961 -24 59 C-23.65501449 56.0194836 -23.71795289 53.09696957 -23.8125 50.1015625 C-23.82953979 48.84996841 -23.82953979 48.84996841 -23.84692383 47.5730896 C-23.89555009 44.03383399 -23.97992266 40.49565551 -24.06152344 36.95703125 C-24.11619978 34.3594252 -24.15221146 31.7619932 -24.1875 29.1640625 C-24.21239502 28.37939606 -24.23729004 27.59472961 -24.26293945 26.7862854 C-24.3860172 17.37771692 -21.52547791 10.65296235 -15.046875 3.890625 C-10.12138291 -0.65887533 -6.51991722 -1.77815924 0 0 Z " fill="#F1F2F2" transform="translate(5144,125)"/>
<path d="M0 0 C2.69606388 2.05752243 4.85081822 4.38419003 7 7 C7.50362061 7.50192871 8.00724121 8.00385742 8.52612305 8.52099609 C14.25794443 14.85567482 13.77543888 21.29728488 13.6875 29.5 C13.70841495 32.18917525 13.75455578 34.87763327 13.8046875 37.56640625 C13.82756836 38.85047363 13.85044922 40.13454102 13.87402344 41.45751953 C14.21386603 51.01394582 15.60750007 59.94525686 21 68 C23.06253902 69.59644659 23.06253902 69.59644659 25.375 70.375 C26.10460938 70.67148438 26.83421875 70.96796875 27.5859375 71.2734375 C32.46396568 72.7415819 37.21500326 73.12538465 42.28979492 73.1418457 C44.12781929 73.15239738 44.12781929 73.15239738 46.00297546 73.16316223 C47.97183464 73.16940865 47.97183464 73.16940865 49.98046875 73.17578125 C51.35802463 73.18622349 52.73557337 73.19764904 54.1131134 73.21000671 C59.93646022 73.26212555 65.75967705 73.31036968 71.58325195 73.32592773 C75.15661338 73.33609511 78.72938736 73.36563427 82.30251503 73.40724754 C84.30236367 73.42530183 86.30236389 73.42292856 88.30229187 73.41999817 C99.94040865 73.57463666 108.80415469 76.16981061 117.6875 83.75 C118.30560547 84.25660156 118.92371094 84.76320313 119.56054688 85.28515625 C121.05136591 86.51017034 122.52740833 87.75313406 124 89 C122.42468333 92.94745049 119.86925504 95.23727309 116.75 98.0625 C115.81671875 98.91972656 114.8834375 99.77695313 113.921875 100.66015625 C101.29564067 110.77127171 80.01759921 108.09947891 64.6640625 107.9921875 C63.51895203 107.9843927 62.37384155 107.9765979 61.19403076 107.96856689 C56.46188357 107.93183111 51.72995455 107.88913176 46.99804688 107.82861328 C43.49085639 107.78636369 39.98393713 107.76289904 36.4765625 107.7421875 C35.410961 107.72356659 34.3453595 107.70494568 33.24746704 107.6857605 C26.45471377 107.66220436 21.81599239 108.26222962 16.75 113.1875 C13.19331899 118.90359448 12.74996713 125.02158752 12.75276184 131.6224823 C12.75034743 132.34641829 12.74793301 133.07035429 12.74544543 133.81622773 C12.73985123 136.22027161 12.74843999 138.62404461 12.75708008 141.02807617 C12.75600585 142.7623044 12.75406509 144.49653227 12.75132751 146.23075867 C12.74648798 150.93513414 12.75413228 155.63941439 12.76428056 160.34377837 C12.77311745 165.30725338 12.77130225 170.27072588 12.7709198 175.23420715 C12.77185659 183.59943204 12.78052775 191.9646207 12.79418945 200.32983398 C12.80976598 209.90070147 12.81519263 219.47152891 12.8144539 229.04240817 C12.81376804 239.32781058 12.82078245 249.6131982 12.8299005 259.89859605 C12.83199705 262.80801532 12.83273693 265.71743208 12.83313942 268.62685204 C12.83819875 287.11870963 12.8997916 305.60752737 13.34342134 324.09486639 C13.38117161 325.67173466 13.41680377 327.24865541 13.45006144 328.82562482 C13.92853614 350.75724659 17.68154415 370.66278167 33.09375 387.25390625 C43.88757131 397.55887696 57.55826688 401.83189939 72.3125 402.375 C87.72224177 401.84836692 102.58311821 397.86715723 116.56762695 391.50634766 C122.72373538 388.71726381 127.24657794 386.82083107 134 388 C137.27163592 390.5900451 139.71266427 392.82856283 140.2734375 397.06640625 C140.55737685 404.04476172 138.96128728 408.313636 135 414 C134.62359375 414.60585938 134.2471875 415.21171875 133.859375 415.8359375 C124.92882599 428.32740162 103.4404652 433.59176145 89.40258789 436.17553711 C63.96261628 440.18209615 38.09720331 434.86430311 16.79931641 420.31982422 C11.41802127 416.37256757 6.68011808 411.73886433 2 407 C0.96939453 405.96746094 0.96939453 405.96746094 -0.08203125 404.9140625 C-22.6195784 380.79939579 -25.14233275 348.92349967 -25.15771484 317.73706055 C-25.16239051 315.59889117 -25.16753531 313.46072277 -25.17311096 311.32255554 C-25.18433513 306.73919965 -25.19279613 302.15585004 -25.19923019 297.57248497 C-25.20996044 290.32351166 -25.23021508 283.07458416 -25.25234985 275.82563782 C-25.31411685 255.21996137 -25.36835449 234.61428908 -25.40136719 214.00854492 C-25.41970472 202.61223792 -25.44862029 191.21600916 -25.4893719 179.81975967 C-25.51043762 173.79516602 -25.52589878 167.77067086 -25.52817917 161.74603844 C-25.53032439 156.08651873 -25.54618102 150.42720489 -25.57256889 144.76774788 C-25.57976514 142.69210317 -25.58186129 140.61643352 -25.57846642 138.54077911 C-25.57457047 135.70599405 -25.58902997 132.87186618 -25.60800171 130.03715515 C-25.60247201 129.21750375 -25.59694232 128.39785235 -25.59124506 127.55336303 C-25.65177195 122.30908473 -26.54344832 118.6587162 -29 114 C-35.69553593 107.48066239 -43.64203391 106.90058943 -52.59375 106.8671875 C-55.14862251 106.96983816 -55.14862251 106.96983816 -58.2421875 107.4921875 C-62.40072204 108.05415163 -66.43513192 108.22038962 -70.625 108.25 C-71.36234375 108.270625 -72.0996875 108.29125 -72.859375 108.3125 C-77.46569139 108.34552019 -80.4334072 107.97841785 -84 105 C-88.1066757 100.21825432 -88.62720864 96.53180957 -88.5 90.5 C-88.51546875 89.76652344 -88.5309375 89.03304687 -88.546875 88.27734375 C-88.50983032 83.1003495 -87.47257037 80.04340385 -84 76 C-79.97129787 72.72753889 -76.72638674 72.6465236 -71.625 72.75 C-70.35914062 72.76546875 -69.09328125 72.7809375 -67.7890625 72.796875 C-64.13592589 72.99271325 -60.61807087 73.47611644 -57 74 C-47.3926818 74.56899834 -38.48785193 74.64978792 -30.5625 68.625 C-26.90983445 64.88324505 -26.0639221 62.37697777 -25.82055664 57.13452148 C-25.8410599 55.62988884 -25.87149148 54.12536926 -25.91015625 52.62109375 C-25.93059969 50.96028965 -25.95077312 49.29948221 -25.97070312 47.63867188 C-26.01389945 45.04762474 -26.06209497 42.456804 -26.11645508 39.8659668 C-26.60982967 14.50456826 -26.60982967 14.50456826 -19.3125 6.5 C-13.51432648 1.41332396 -7.8647984 -2.71693036 0 0 Z " fill="#F1F2F2" transform="translate(3771,125)"/>
<path d="M0 0 C1.18207031 0.4125 2.36414063 0.825 3.58203125 1.25 C24.97460174 9.55229858 40.91687168 26.04702961 50.8125 46.5 C60.38900296 68.8672647 61.04349395 94.14263291 52.1875 116.8125 C42.79152313 139.4853376 25.55423465 156.08345592 3.09277344 165.64135742 C-16.19754413 173.46254859 -39.33182891 173.89516343 -59 167 C-60.05960937 166.63777344 -61.11921875 166.27554688 -62.2109375 165.90234375 C-83.50614543 157.82768265 -100.48046784 140.39042592 -110.11132812 120.04248047 C-118.97330405 99.67454349 -120.46442338 74.99805083 -113 54 C-112.57589844 52.80503906 -112.15179688 51.61007813 -111.71484375 50.37890625 C-102.86908639 27.88259295 -85.70642482 11.54447235 -64 1.625 C-44.12646662 -6.24570629 -20.2572365 -7.25903212 0 0 Z " fill="#F1F2F2" transform="translate(340,4)"/>
<path d="M0 0 C3.26486193 0.35537353 5.32431639 1.75653272 7.890625 3.72265625 C8.95410156 4.52993164 8.95410156 4.52993164 10.0390625 5.35351562 C11.13347656 6.19946289 11.13347656 6.19946289 12.25 7.0625 C12.99507812 7.63033203 13.74015625 8.19816406 14.5078125 8.78320312 C16.34300661 10.18312683 18.17344687 11.58883221 20 13 C19.71689691 19.21850584 16.60207461 22.58645007 12.8125 27.1875 C11.52253923 28.79771891 10.23484406 30.40975497 8.94921875 32.0234375 C7.95994385 33.2604541 7.95994385 33.2604541 6.95068359 34.52246094 C3.91183523 38.38206459 1.01722535 42.34250162 -1.875 46.3125 C-7.54978926 54.07251156 -13.3402107 61.7372259 -19.17919922 69.37426758 C-23.14591727 74.56347261 -27.09064358 79.76745621 -31 85 C-35.5841476 91.13572939 -40.22318285 97.22794973 -44.875 103.3125 C-51.84297361 112.43222521 -58.71430896 121.62087937 -65.44628906 130.91650391 C-66.51691709 132.35219523 -67.62591617 133.75979365 -68.76464844 135.14208984 C-72.03872953 138.95771901 -72.03872953 138.95771901 -73.109375 143.6796875 C-71.77451732 146.47160814 -70.17557486 148.69993392 -68.25 151.125 C-55.72853773 167.8800157 -54.02802087 187.37141921 -56.43359375 207.65625 C-59.4620736 221.65121278 -66.97859436 232.25454611 -77 242 C-77.70382813 242.68964844 -78.40765625 243.37929688 -79.1328125 244.08984375 C-93.05894675 256.97292746 -110.55580858 261.58932961 -129.1953125 261.2734375 C-147.03446531 260.55186985 -163.39136741 252.48344049 -176 240 C-188.11408127 226.37399179 -194.6301828 210.25776245 -194.375 192.0625 C-194.36412354 191.00562988 -194.35324707 189.94875977 -194.34204102 188.85986328 C-193.99958956 172.13014033 -188.20838464 157.52701813 -177 145 C-176.01773438 143.87851562 -176.01773438 143.87851562 -175.015625 142.734375 C-163.36332723 130.23154454 -147.29492435 122.84654529 -130.2578125 121.76171875 C-119.50871282 121.4796345 -108.82402096 122.55285365 -98.86328125 126.94140625 C-96.75390072 127.20995319 -96.75390072 127.20995319 -94.71484375 125.1640625 C-91.06819934 121.1214967 -87.83383159 116.72097192 -84.5625 112.375 C-83.85802734 111.44494141 -83.15355469 110.51488281 -82.42773438 109.55664062 C-77.32432595 102.80253406 -72.29392505 95.99637947 -67.29125977 89.16748047 C-62.26733152 82.32369967 -57.1208701 75.57745864 -51.9609375 68.8359375 C-47.57935674 63.10097273 -43.26457042 57.32240437 -39 51.5 C-33.42360207 43.88656174 -27.72964096 36.36993358 -21.99169922 28.87768555 C-16.68634617 21.93667726 -11.485655 14.92328925 -6.33984375 7.86328125 C-5.79714844 7.12078125 -5.25445312 6.37828125 -4.6953125 5.61328125 C-4.22109863 4.96141846 -3.74688477 4.30955566 -3.25830078 3.63793945 C-2 2 -2 2 0 0 Z " fill="#243DC9" transform="translate(232,166)"/>
<path d="M0 0 C4.98659694 1.21532639 6.9544134 4.84553843 9.859375 8.8828125 C10.47570801 9.70740967 11.09204102 10.53200684 11.72705078 11.3815918 C13.5438247 13.82470077 15.33201381 16.28592754 17.109375 18.7578125 C17.55829102 19.38091309 18.00720703 20.00401367 18.46972656 20.64599609 C20.03894331 22.83264073 21.60066129 25.0244379 23.1484375 27.22631836 C27.57749993 33.50171071 32.27407028 39.57097835 36.94482422 45.66723633 C41.39620945 51.48591458 45.78168435 57.34665386 50.109375 63.2578125 C55.68932582 70.87646894 61.38831615 78.39717657 67.12866211 85.89550781 C72.27615874 92.63200067 77.33132679 99.43177296 82.33007812 106.27929688 C83.9144196 108.44540389 85.51154922 110.60164047 87.109375 112.7578125 C87.70862793 113.58603516 88.30788086 114.41425781 88.92529297 115.26757812 C89.53131348 116.08419922 90.13733398 116.90082031 90.76171875 117.7421875 C91.30691162 118.48694336 91.85210449 119.23169922 92.41381836 119.99902344 C94.34191545 121.99902509 95.37189169 122.47730495 98.109375 122.7578125 C101.17997217 122.04006829 101.17997217 122.04006829 104.421875 120.8828125 C121.44124347 115.12241086 139.78531445 116.94118402 156.09375 124.1796875 C173.50374746 133.29061882 185.64712347 147.02145038 192.1796875 165.60546875 C197.92979077 185.10266766 195.3350952 205.08748396 186.09179688 223.00683594 C183.62892117 227.39643449 180.52181469 231.08695505 177.109375 234.7578125 C176.22185547 235.79808594 176.22185547 235.79808594 175.31640625 236.859375 C167.22603408 245.79500993 155.55074554 251.42367078 144.109375 254.7578125 C143.37203125 254.98210937 142.6346875 255.20640625 141.875 255.4375 C124.18369447 259.89082863 104.71622118 256.80638897 89.07421875 247.73828125 C84.27054397 244.52950244 80.16582268 240.85615121 76.109375 236.7578125 C75.41199219 236.09394531 74.71460938 235.43007813 73.99609375 234.74609375 C61.63557093 222.14556078 55.80258914 203.905267 55.671875 186.5703125 C55.90769687 169.89411456 61.41163452 155.88169465 72.01953125 142.94140625 C73.35624028 140.81323403 73.35624028 140.81323403 72.68359375 138.48828125 C70.42758465 134.57525305 67.68372916 131.14972422 64.859375 127.6328125 C59.8659941 121.31856438 54.98138128 114.94688428 50.234375 108.4453125 C45.26933175 101.65583288 40.2228276 94.93623199 35.109375 88.2578125 C29.99590789 81.57937405 24.95022668 74.85921333 19.984375 68.0703125 C14.90702784 61.1320372 9.68967598 54.32141775 4.38305664 47.55737305 C-1.74403353 39.72067865 -7.62581861 31.70694828 -13.48706055 23.67041016 C-14.47955714 22.31796306 -15.50006361 20.98586294 -16.53955078 19.66918945 C-17.890625 17.7578125 -17.890625 17.7578125 -18.37109375 15.26171875 C-17.69119847 11.71852464 -16.07291211 10.80261603 -13.203125 8.6953125 C-12.33300781 8.04433594 -11.46289062 7.39335937 -10.56640625 6.72265625 C-9.24189453 5.75005859 -9.24189453 5.75005859 -7.890625 4.7578125 C-6.67439453 3.64599609 -6.67439453 3.64599609 -5.43359375 2.51171875 C-2.890625 0.7578125 -2.890625 0.7578125 0 0 Z " fill="#0880D0" transform="translate(382.890625,170.2421875)"/>
<path d="M0 0 C5.2368889 6.65226428 5.67038254 12.73992948 5 21 C3.49107773 25.22498235 1.9433967 27.80922406 -2 30 C-8.34958798 32.13962924 -14.81910168 32.89664183 -21.4375 33.8125 C-31.73741825 35.32213152 -41.24793328 37.34015972 -51 41 C-52.01320312 41.36738281 -53.02640625 41.73476562 -54.0703125 42.11328125 C-82.63694729 53.19713555 -103.8094018 74.0119323 -116.18701172 102.02636719 C-121.20520404 114.20866952 -124.3104258 126.95324033 -126 140 C-126.083069 140.63866501 -126.166138 141.27733002 -126.25172424 141.93534851 C-127.24973622 150.71425937 -127.3764416 159.53451108 -127.5703125 168.359375 C-127.59173435 169.30082115 -127.6131562 170.2422673 -127.6352272 171.21224213 C-128.07359315 191.29248477 -128.04452744 211.36962652 -127.9921875 231.453125 C-127.98828277 233.07629896 -127.98440964 234.69947299 -127.98056793 236.32264709 C-127.94414963 251.40200106 -127.89797222 266.4813068 -127.82861328 281.56054688 C-127.79404848 289.09585301 -127.77028529 296.63111436 -127.75840485 304.16649127 C-127.75038337 308.88165668 -127.72935393 313.59651476 -127.69819999 318.31158113 C-127.6821391 321.2270093 -127.67878064 324.14235122 -127.67897034 327.05781937 C-127.67542206 329.03453175 -127.65691711 331.0111999 -127.6378479 332.98782349 C-127.6730793 348.6730793 -127.6730793 348.6730793 -133.5 354.5 C-137.89416771 357.13650063 -141.82851338 357.21385141 -146.8125 357.25 C-147.86147461 357.2809375 -147.86147461 357.2809375 -148.93164062 357.3125 C-153.72699327 357.34838664 -156.95129834 356.56497865 -161 354 C-165.152341 348.72540467 -166.12326085 344.91541016 -166.13142776 338.34239483 C-166.13526891 337.1822602 -166.13911005 336.02212556 -166.1430676 334.82683533 C-166.14220112 333.5514667 -166.14133463 332.27609807 -166.14044189 330.96208191 C-166.14302578 329.59418396 -166.14603901 328.22628677 -166.1494453 326.85839063 C-166.15751567 323.09561602 -166.15930489 319.33286049 -166.16004276 315.57007825 C-166.16189323 311.51339352 -166.16944049 307.45671869 -166.17617798 303.40003967 C-166.18976167 294.52819001 -166.19578596 285.65634486 -166.20018864 276.78448653 C-166.20295076 271.24586818 -166.20718804 265.70725158 -166.21169281 260.16863441 C-166.22388508 244.83638589 -166.23418477 229.50413876 -166.2375679 214.17188549 C-166.23778747 213.19053997 -166.23800703 212.20919446 -166.23823325 211.1981112 C-166.23845153 210.21440908 -166.23866981 209.23070696 -166.2388947 208.21719569 C-166.23933817 206.22381731 -166.23978473 204.23043893 -166.24023438 202.23706055 C-166.2404558 201.24827462 -166.24067723 200.2594887 -166.24090537 199.24073956 C-166.24485426 183.21518273 -166.26231124 167.18967135 -166.2855939 151.16413208 C-166.30930017 134.71437932 -166.32176941 118.26464937 -166.32293582 101.81487924 C-166.32385294 92.57752623 -166.32961465 83.34023244 -166.34775543 74.10289574 C-166.36314658 66.23793743 -166.36828268 58.37305666 -166.36001733 50.50808617 C-166.35610744 46.49507969 -166.35705689 42.48222941 -166.37107468 38.4692421 C-166.3837932 34.79462086 -166.38263428 31.12027351 -166.37048396 27.44565276 C-166.36759553 25.48855591 -166.37947822 23.53145441 -166.39190602 21.57439488 C-166.35649203 15.29775902 -166.18721082 10.48300495 -163 5 C-158.24907879 0.48662485 -154.61403987 -0.16787169 -148.1875 -0.25 C-146.98480469 -0.27578125 -145.78210937 -0.3015625 -144.54296875 -0.328125 C-140.6496389 0.032448 -138.31120843 0.95568871 -135 3 C-129.69645969 9.59359065 -129.8315376 15.79675638 -129.68359375 23.89453125 C-129.66281265 24.84188644 -129.64203156 25.78924164 -129.62062073 26.76530457 C-129.55542222 29.7809651 -129.49637868 32.7967101 -129.4375 35.8125 C-129.39428652 37.86133674 -129.35067134 39.91016504 -129.30664062 41.95898438 C-129.19977134 46.97257047 -129.09842069 51.98624123 -129 57 C-128.43192627 56.41621582 -127.86385254 55.83243164 -127.27856445 55.23095703 C-106.1541735 33.60050314 -106.1541735 33.60050314 -95 26 C-93.95714844 25.26265625 -92.91429688 24.5253125 -91.83984375 23.765625 C-72.69679609 10.57888583 -22.2915944 -14.86106294 0 0 Z " fill="#F1F2F2" transform="translate(4176,200)"/>
<path d="M0 0 C0.88365234 -0.00128906 1.76730469 -0.00257813 2.67773438 -0.00390625 C3.59748047 -0.00003906 4.51722656 0.00382813 5.46484375 0.0078125 C6.38845703 0.00394531 7.31207031 0.00007812 8.26367188 -0.00390625 C9.5872168 -0.00197266 9.5872168 -0.00197266 10.9375 0 C11.74582275 0.00112793 12.55414551 0.00225586 13.38696289 0.00341797 C15.40234375 0.1328125 15.40234375 0.1328125 17.40234375 1.1328125 C18.58043538 5.94985301 18.53851376 10.77939111 18.51586914 15.70849609 C18.51601517 16.54817932 18.51616119 17.38786255 18.51631165 18.25299072 C18.5156182 21.01243729 18.50785249 23.77181531 18.5 26.53125 C18.4981338 28.45081546 18.49671085 30.3703814 18.49571228 32.28994751 C18.491903 37.3303561 18.48208632 42.37073566 18.4710083 47.41113281 C18.46075998 52.5592408 18.45620734 57.70735349 18.45117188 62.85546875 C18.44046259 72.94792939 18.42340529 83.04036853 18.40234375 93.1328125 C19.06766113 93.32979736 19.73297852 93.52678223 20.41845703 93.72973633 C21.74466064 94.124552 21.74466064 94.124552 23.09765625 94.52734375 C23.96922363 94.78620361 24.84079102 95.04506348 25.73876953 95.31176758 C43.08551992 100.65889146 56.422979 110.97854837 65.61328125 126.66796875 C74.61042683 144.09257166 77.23667023 163.3003875 71.7265625 182.20703125 C65.83550723 200.55035554 53.444175 215.57932676 36.34448242 224.44775391 C19.2844641 232.7330193 -0.68362681 233.99504835 -18.67578125 227.85595703 C-36.79476763 221.03832013 -50.30845614 208.17093008 -58.91015625 190.8203125 C-66.73671511 172.71473084 -66.81061602 153.3874685 -59.81640625 135.08886719 C-53.31530724 119.23491393 -42.08375271 106.6799334 -26.59765625 99.1328125 C-23.03633885 97.65162822 -19.42928497 96.31959004 -15.75097656 95.15844727 C-12.13022071 94.04560972 -12.13022071 94.04560972 -9.41065979 91.55921936 C-8.23009898 88.03583881 -8.34499707 84.5958479 -8.38647461 80.92358398 C-8.38844597 79.6863559 -8.38844597 79.6863559 -8.39045715 78.4241333 C-8.39694276 75.70060714 -8.41737166 72.97736273 -8.4375 70.25390625 C-8.44377095 68.36109217 -8.44901086 66.46827441 -8.45326233 64.57545471 C-8.46656426 59.59365827 -8.49099813 54.61198445 -8.51861572 49.63024902 C-8.56173906 41.65259081 -8.59143227 33.67489916 -8.61465645 25.69716072 C-8.62489337 22.90796005 -8.64194169 20.11885861 -8.65965271 17.32969666 C-8.66647961 15.62401417 -8.67308837 13.91833079 -8.67944336 12.21264648 C-8.68618073 11.43490372 -8.69291809 10.65716095 -8.69985962 9.85585022 C-8.70662121 6.672602 -8.61223239 4.17654093 -7.59765625 1.1328125 C-4.74856019 0.18311381 -2.95516877 0.00411788 0 0 Z " fill="#E73C62" transform="translate(303.59765625,195.8671875)"/>
<path d="M0 0 C4.48047054 0.58501481 7.29796667 2.01789714 11.08203125 4.3671875 C11.70142578 4.73199219 12.32082031 5.09679687 12.95898438 5.47265625 C15.48259694 6.97969958 17.68430905 8.4069653 19.76953125 10.4921875 C20.1484375 12.40234375 20.1484375 12.40234375 20.33203125 14.5546875 C20.32866573 18.25955367 20.32866573 18.25955367 21.76953125 19.4921875 C21.59498801 21.09798532 21.40105376 22.70302054 21.13548279 24.29629517 C20.88171932 25.81900294 20.66431965 27.34804414 20.47596741 28.88021851 C19.36778943 36.64374619 16.5155853 42.64107445 12.765625 49.46875 C11.82175099 51.23827476 10.87796319 53.00784763 9.93710613 54.77897835 C9.26896059 56.03579188 8.59909147 57.29169048 7.92760181 58.5467205 C1.44049977 70.68378605 -4.68085419 83.01536709 -10.86791992 95.30712891 C-12.42086404 98.39030043 -13.98164079 101.46933037 -15.54858398 104.54541016 C-17.47682554 108.33105824 -19.39140038 112.12331926 -21.29629707 115.92076492 C-22.01516068 117.34812399 -22.73881275 118.77308244 -23.4674511 120.19547653 C-24.47316507 122.16095016 -25.4610515 124.13443533 -26.44506836 126.11083984 C-27.00906845 127.22631195 -27.57306854 128.34178406 -28.15415955 129.49105835 C-29.57184491 133.44406448 -29.01572313 135.71298501 -27.36328125 139.45703125 C-26.86441406 140.43349609 -26.86441406 140.43349609 -26.35546875 141.4296875 C-18.76885012 158.23653972 -19.51682612 177.28558555 -25.23046875 194.4921875 C-30.21964236 207.62478431 -38.06977463 216.32993508 -50.796875 222.15234375 C-62.4027809 226.68115572 -74.12798913 226.78610095 -85.69921875 222.08203125 C-97.4283147 216.75248363 -105.28315468 209.57420377 -110.23046875 197.4921875 C-111.88114471 192.23605384 -113.0610276 186.87161677 -114.23046875 181.4921875 C-114.42382812 180.82316406 -114.6171875 180.15414062 -114.81640625 179.46484375 C-117.68323175 165.80685436 -114.59044237 147.84490904 -107.76953125 135.73046875 C-99.56970946 123.80534722 -90.36517793 117.5042454 -76.23046875 114.4921875 C-72.6082828 114.31051046 -69.04670492 114.23395504 -65.421875 114.3515625 C-60.38606581 112.99553065 -58.77558672 109.88515217 -56.23046875 105.4921875 C-53.82678716 100.91162929 -51.57695764 96.27114559 -49.37185669 91.59234619 C-47.5112363 87.64711309 -45.6205354 83.71634688 -43.73046875 79.78515625 C-43.34943497 78.9914563 -42.96840118 78.19775635 -42.57582092 77.38000488 C-39.12376378 70.21515439 -35.48918374 63.15898047 -31.79296875 56.1171875 C-24.94620237 43.05900791 -18.49738474 29.82218626 -12.13110352 16.52392578 C-11.5748101 15.36790108 -11.5748101 15.36790108 -11.00727844 14.18852234 C-10.3117145 12.74289798 -9.61966209 11.29557663 -8.93180847 9.8462677 C-4.51790174 0.68833811 -4.51790174 0.68833811 0 0 Z " fill="#EFF0F0" transform="translate(458.23046875,422.5078125)"/>
<path d="M0 0 C3.12286784 1.12152529 4.39654141 2.5012728 6.5234375 5.03125 C7.2040625 5.83691406 7.8846875 6.64257812 8.5859375 7.47265625 C11.02941427 10.5417813 13.31566238 13.66358029 15.5234375 16.90625 C13.93757015 21.2882519 10.49699367 23.77526047 7.0234375 26.65625 C6.39268311 27.18774658 5.76192871 27.71924316 5.11206055 28.2668457 C0.76995887 31.91129687 -3.62795454 35.48334371 -8.07421875 39 C-10.60377267 41.00719075 -13.10482188 43.04590331 -15.6015625 45.09375 C-35.33028639 61.26072966 -35.33028639 61.26072966 -44.6640625 68.53125 C-49.75012018 72.49495134 -54.69289908 76.59614892 -59.59155273 80.78833008 C-63.39681761 84.03023446 -67.28093771 87.14968227 -71.2265625 90.21875 C-77.23966311 94.89747805 -83.13435613 99.70703353 -89.00537109 104.5625 C-93.93467805 108.63885065 -98.88359351 112.6896098 -103.8515625 116.71875 C-108.23340518 120.27299339 -112.61242155 123.83025988 -116.9765625 127.40625 C-124.82345915 133.83390227 -132.70433612 140.2198349 -140.57910156 146.61328125 C-141.96780228 147.74083106 -143.35639382 148.86851535 -144.74487305 149.99633789 C-146.09479563 151.09249502 -147.44520946 152.1880475 -148.79614258 153.28295898 C-151.83122296 155.74501134 -154.85715835 158.21590134 -157.85546875 160.72265625 C-158.84417969 161.54636719 -159.83289063 162.37007812 -160.8515625 163.21875 C-161.70492187 163.93675781 -162.55828125 164.65476562 -163.4375 165.39453125 C-165.4765625 166.90625 -165.4765625 166.90625 -167.4765625 166.90625 C-168.18083135 170.97535894 -168.54337021 173.94786983 -167.4765625 177.90625 C-166.50717938 193.94080032 -168.55451318 205.42946056 -179.4765625 217.90625 C-189.36259041 227.50257746 -200.86035532 231.23563329 -214.33959961 231.29125977 C-226.99557444 231.05714764 -236.49021493 225.69460391 -245.40625 217.03125 C-254.20979287 207.66095544 -258.01112556 196.53107211 -257.7265625 183.796875 C-256.60177119 170.79147551 -251.75044759 160.13604272 -242.29296875 151.171875 C-231.33211679 142.3545461 -219.1238884 139.92359256 -205.42138672 140.69335938 C-200.17288723 141.26788756 -195.04819874 143.25305527 -190.6171875 146.1015625 C-187.18246604 147.39271692 -184.99655137 146.85950305 -181.4765625 145.90625 C-178.78526192 144.14865111 -176.5027055 142.0406663 -174.1640625 139.84375 C-172.83455487 138.64317714 -171.50382687 137.44395432 -170.171875 136.24609375 C-169.53411133 135.66585449 -168.89634766 135.08561523 -168.23925781 134.48779297 C-166.0700719 132.54153447 -163.82771322 130.7100171 -161.5390625 128.90625 C-157.17401008 125.46513368 -152.85083282 121.97622376 -148.5390625 118.46875 C-147.84304932 117.90285156 -147.14703613 117.33695313 -146.42993164 116.75390625 C-141.74003595 112.93884693 -137.05937077 109.11264713 -132.3828125 105.28125 C-128.7535096 102.31536806 -125.11525687 99.36059694 -121.4765625 96.40625 C-115.13132924 91.25404234 -108.79825456 86.08733095 -102.4765625 80.90625 C-95.45864994 75.15456631 -88.42435993 69.42349044 -81.38012695 63.70410156 C-77.57291179 60.61212121 -73.77049449 57.51453163 -69.9765625 54.40625 C-62.12966585 47.97859773 -54.24878888 41.5926651 -46.37402344 35.19921875 C-32.47766216 23.91912004 -32.47766216 23.91912004 -18.640625 12.56640625 C-16.78252409 11.03665468 -14.91946488 9.51289972 -13.05078125 7.99609375 C-11.41656447 6.66937754 -9.79277375 5.32963087 -8.18359375 3.97265625 C-7.49652344 3.41449219 -6.80945313 2.85632813 -6.1015625 2.28125 C-5.51632812 1.79398437 -4.93109375 1.30671875 -4.328125 0.8046875 C-2.4765625 -0.09375 -2.4765625 -0.09375 0 0 Z " fill="#F1F2F2" transform="translate(430.4765625,406.09375)"/>
<path d="M0 0 C5.45487147 0.21391653 10.65523055 1.55365133 15.9375 2.875 C16.61256592 3.03629395 17.28763184 3.19758789 17.9831543 3.36376953 C19.90234375 3.8671875 19.90234375 3.8671875 23 5 C24.05601992 8.16805976 23.98938147 8.90689335 23.20239258 11.99615479 C23.00038239 12.8063356 22.79837219 13.61651642 22.59024048 14.45124817 C22.36065643 15.33648666 22.13107239 16.22172516 21.89453125 17.13378906 C21.54121231 18.53672462 21.54121231 18.53672462 21.18075562 19.96800232 C20.66754792 22.00198154 20.1506238 24.03502577 19.63046265 26.06723785 C18.80753939 29.2850219 17.995616 32.50539685 17.18676758 35.72674561 C14.88469668 44.88643894 12.56236831 54.04096057 10.23339844 63.19384766 C8.81020501 68.79020289 7.39961459 74.38961677 5.99642944 79.9910202 C5.45914467 82.12447572 4.91688174 84.256684 4.36953735 86.38758087 C3.60310274 89.3717708 2.85264223 92.35957152 2.10546875 95.34863281 C1.8758847 96.22577438 1.64630066 97.10291595 1.40975952 98.00663757 C0.16665328 103.06164088 -0.27309347 106.91296032 1 112 C2.7843745 113.23650149 2.7843745 113.23650149 5 114 C13.74455216 122.28269201 19.37462415 131.02530801 20.22265625 143.1953125 C20.60775173 158.43169891 16.71082248 170.70925511 6.296875 181.92578125 C2.30283367 185.5326451 -2.10102267 187.83807507 -7 190 C-7.75667969 190.3403125 -8.51335938 190.680625 -9.29296875 191.03125 C-19.67575541 194.89128773 -33.49571269 194.68909062 -43.61328125 190.2578125 C-57.27515216 183.05793945 -64.55379919 172.84392217 -69.91796875 158.5546875 C-73.06109161 147.12131442 -69.79939241 135.36637518 -64.53125 125.15234375 C-58.02266302 113.99257314 -49.06781823 108.10479875 -37 104 C-36.2275444 103.91997742 -35.45508881 103.83995483 -34.65922546 103.75750732 C-31.60630606 103.28351444 -29.61389712 102.67397893 -27 101 C-24.46695171 96.32411751 -23.46627296 91.30957582 -22.33203125 86.16015625 C-21.96336103 84.63875025 -21.59078065 83.11828705 -21.21452332 81.59873962 C-20.2300758 77.57868147 -19.2982558 73.54818208 -18.3772583 69.51318359 C-17.45682148 65.51908662 -16.48973062 61.53641472 -15.52539062 57.55273438 C-14.02804479 51.34352561 -12.55275964 45.12954045 -11.09619141 38.91064453 C-9.13176155 30.53258856 -7.12888468 22.16498462 -5.07421875 13.80859375 C-4.79101273 12.63273209 -4.5078067 11.45687042 -4.21601868 10.24537659 C-3.95225937 9.18012253 -3.68850006 8.11486847 -3.41674805 7.01733398 C-3.19004929 6.09065414 -2.96335052 5.1639743 -2.7297821 4.20921326 C-2 2 -2 2 0 0 Z " fill="#F1F2F2" transform="translate(71,444)"/>
<path d="M0 0 C2.04275368 5.87495504 3.78784381 11.7490502 5.25244141 17.79272461 C5.45609818 18.61987976 5.65975494 19.44703491 5.86958313 20.29925537 C6.53360669 22.99947156 7.19252671 25.70090634 7.8515625 28.40234375 C8.3153133 30.29050645 8.77946149 32.17857158 9.24398804 34.06654358 C10.45992025 39.01166584 11.67185223 43.95775827 12.88250732 48.9041748 C14.8263746 56.84550778 16.7741487 64.78587592 18.72611618 72.72522163 C19.40682245 75.49785378 20.08445584 78.27122476 20.76187134 81.04466248 C21.17657361 82.73415093 21.59139259 84.42361073 22.00634766 86.11303711 C22.19440475 86.88651993 22.38246185 87.66000275 22.57621765 88.45692444 C23.50444916 92.32736769 23.50444916 92.32736769 25 96 C27.47922535 96.65635328 29.93119671 97.22102012 32.4375 97.75 C39.49656494 99.38027989 45.11581721 101.65795433 51 106 C51.63164063 106.43957031 52.26328125 106.87914062 52.9140625 107.33203125 C61.28046367 113.72661541 66.32892094 123.85993494 68.6875 133.9375 C70.04340325 147.2253518 67.11886758 159.83343218 59.02734375 170.6328125 C49.90806851 181.40867566 38.93638443 186.56636045 25 188 C11.00407235 187.77311566 -0.00369899 182.73887483 -9.94140625 173.12109375 C-19.03545147 163.39851841 -22.50431311 152.17600691 -22.25390625 139.0546875 C-21.14841107 125.75473008 -15.22269851 116.22269851 -6 107 C-3.56806814 103.35210221 -2.66171568 100.50158931 -3.26010132 96.0765686 C-3.74967878 93.75675729 -4.32042251 91.47019475 -4.91796875 89.17578125 C-5.25322823 87.82979607 -5.25322823 87.82979607 -5.59526062 86.45661926 C-6.38481794 83.30126112 -7.19235815 80.15077572 -8 77 C-8.63964403 74.47334542 -9.27849329 71.94650012 -9.91650391 69.41943359 C-11.31772255 63.8773551 -12.721408 58.33590461 -14.12695312 52.79492188 C-14.3057004 52.08980406 -14.48444767 51.38468624 -14.66861153 50.65820122 C-15.58750899 47.0355429 -16.50999978 43.41385434 -17.4387207 39.79370117 C-18.35400471 36.22484804 -19.25994565 32.65373568 -20.1597805 29.08095741 C-20.49965324 27.73860126 -20.84287491 26.3970879 -21.18969154 25.05650902 C-24.75996807 11.24356722 -24.75996807 11.24356722 -24 5 C-20.52066202 2.68044134 -17.12183202 1.80990763 -13.125 0.8125 C-12.41730469 0.62236328 -11.70960938 0.43222656 -10.98046875 0.23632812 C-6.99087125 -0.77035802 -3.96563673 -1.22079405 0 0 Z " fill="#F1F2F2" transform="translate(539,450)"/>
<path d="M0 0 C0.66 0.33 1.32 0.66 2 1 C-3.61 6.61 -9.22 12.22 -15 18 C-15 13.74508832 -12.52840258 11.92686684 -9.75 9 C-9.25886719 8.46632813 -8.76773437 7.93265625 -8.26171875 7.3828125 C-5.68642506 4.62209767 -3.11691202 2.1373111 0 0 Z " fill="#E85E7C" transform="translate(267,301)"/>
<path d="M0 0 C1.32 0.33 2.64 0.66 4 1 C0.66666667 3.66666667 -2.66666667 6.33333333 -6 9 C-4.47291037 5.56404834 -2.40072955 2.88087546 0 0 Z " fill="#5265D2" transform="translate(232,166)"/>
</svg>
